<?xml version="1.0" encoding="UTF-8"?> <svg xmlns="http://www.w3.org/2000/svg" xmlns:xlink="http://www.w3.org/1999/xlink" width="12" height="12" viewBox="0 0 12 12"><defs><clipPath id="clip-path"><rect id="Rectangle_248" data-name="Rectangle 248" width="4.22" height="8.351" fill="#fff"></rect></clipPath></defs><g id="Group_601" data-name="Group 601" transform="translate(-436 -1678)"><circle id="Ellipse_14" data-name="Ellipse 14" cx="6" cy="6" r="6" transform="translate(436 1678)" fill="#debaa7"></circle><g id="Group_600" data-name="Group 600" transform="translate(439.993 1679.927)"><g id="Group_599" data-name="Group 599" clip-path="url(#clip-path)"><path id="Path_105" data-name="Path 105" d="M3.34,0A1.045,1.045,0,0,0,2.295,1.02a.817.817,0,0,0,.867.867A1.031,1.031,0,0,0,4.22.867.833.833,0,0,0,3.34,0M3.6,6.209c-.178,0-.88,1.084-1.262,1.084a.161.161,0,0,1-.153-.178A2.435,2.435,0,0,1,2.4,6.4l.918-2.486c.459-1.237-.127-1.568-.676-1.568A2.828,2.828,0,0,0,.727,3.2C.561,3.366,0,3.9,0,4.131A.178.178,0,0,0,.166,4.3c.229,0,.841-1.109,1.313-1.109.1,0,.217.115.127.344L.714,5.775A6.474,6.474,0,0,0,.191,7.65c0,.484.319.7.778.7A3.768,3.768,0,0,0,3.748,6.4.184.184,0,0,0,3.6,6.209" fill="#fff"></path></g></g></g></svg> 